# xmcd
#
# Track frame offsets: 
#        150
#        21614
#        34610
#        51285
#        69178
#        91521
#        105918
#        129314
#        145422
#        166008
#        189863
#        207605
#        232806
#        251371
#
# Disc length: 3628 seconds
#
# Revision: 0
# Processed by: cddbd v1.5.2PL0 Copyright (c) Steve Scherf et al.
# Submitted via: ExactAudioCopy v0.99pb5
#
DISCID=ab0e2a0e
DTITLE=DR JOHN - CITY THAT CARE FORGOT
DYEAR=2008
DGENRE=Blues
TTITLE0=Keep on Goin
TTITLE1=Time for a Change
TTITLE2=Promises, Promises
TTITLE3=You Might Be Surprised
TTITLE4=Dream Warrior
TTITLE5=Black Gold
TTITLE6=We Gettin There
TTITLE7=Stripped Away
TTITLE8=Say Whut?
TTITLE9=My People Need a Second Line
TTITLE10=Land Grab
TTITLE11=City That Care Forgot
TTITLE12=Save Our Wetlands
TTITLE13=MOTHER EARTH
EXTD=
EXTT0=
EXTT1=
EXTT2=
EXTT3=
EXTT4=
EXTT5=
EXTT6=
EXTT7=
EXTT8=
EXTT9=
EXTT10=
EXTT11=
EXTT12=
EXTT13=
PLAYORDER=
